<svg xmlns="http://www.w3.org/2000/svg" viewBox="0 0 462.1 223.99"><defs><style>.cls-1{isolation:isolate;}.cls-2{fill:#7bcbd1;}.cls-3{fill:#c1e217;mix-blend-mode:luminosity;}.cls-4{fill:#c1df1c;}.cls-5{font-size:94.55px;fill:#333;font-family:Futura-Medium, Futura;font-weight:500;}.cls-6{letter-spacing:0.01em;}</style></defs><title>Vidi Labs Logo - Full@1x</title><g class="cls-1"><g id="Layer_2" data-name="Layer 2"><g id="Layer_1-2" data-name="Layer 1"><path class="cls-2" d="M101.82,131.17l-.08.11-26.6,38.29-.42-.57L1.37,65.31A7.5,7.5,0,0,1,3.16,54.87L26.82,38.13a7.47,7.47,0,0,1,10.43,1.79l64.4,91Z"/><path class="cls-2" d="M129,169.1l-12.73,18.31h0a.05.05,0,0,1,0,0v0l-4.1,5.88a15.08,15.08,0,0,1-19.54.33h0a0,0,0,0,1,0,0l-1.81-2.51-2.65-3.67h0l-12.94-17.9,26.6-38.29.08-.11Z"/><path class="cls-3" d="M112.12,193.36l4.1-5.88-4.06,5.85Z"/><path class="cls-4" d="M183.58,12.41a40.26,40.26,0,0,0-37.48,55l-44.28,63.77L129,169.1l52.9-76.19c.56,0,1.13,0,1.7,0a40.27,40.27,0,0,0,0-80.54ZM190.85,80a28.27,28.27,0,0,1-35.5-25.93c0-.46,0-.92,0-1.39A28.27,28.27,0,1,1,190.85,80Z"/><text class="cls-5" transform="translate(277.77 83.26) scale(1.02 1)"><tspan class="cls-6">V</tspan><tspan x="64.86" y="0">idi</tspan><tspan x="-12.51" y="113.45">Labs</tspan></text></g></g></g></svg>