<svg xmlns="http://www.w3.org/2000/svg" viewBox="0 0 223.85 184.71">
<defs>
    <style>.cls-1{isolation:isolate;}.cls-2{fill:#7bcbd1;}.cls-3{fill:#c1e217;mix-blend-mode:luminosity;}.cls-4{fill:#c1df1c;}</style>
</defs>
<title>Vidi Labs Logo Icon@1x</title>
<g class="cls-1">
<g id="Layer_2" data-name="Layer 2">
<g id="Layer_1-2" data-name="Layer 1">
<path class="cls-2" d="M101.82,118.76l-.08.11-26.6,38.29-.42-.57L1.37,52.9A7.5,7.5,0,0,1,3.16,42.46L26.82,25.72a7.47,7.47,0,0,1,10.43,1.79l64.4,91Z"/>
<path class="cls-2" d="M129,156.69,116.25,175h0a.05.05,0,0,1,0,0v0l-4.1,5.88a15.08,15.08,0,0,1-19.54.33h0a0,0,0,0,1,0,0l-1.81-2.51-2.65-3.67h0l-12.94-17.9,26.6-38.29.08-.11Z"/>
<path class="cls-3" d="M112.12,181l4.1-5.88-4.06,5.85Z"/>
<path class="cls-4" d="M183.58,0A40.26,40.26,0,0,0,146.1,55l-44.28,63.77L129,156.69l52.9-76.19c.56,0,1.13,0,1.7,0a40.27,40.27,0,0,0,0-80.54Zm7.27,67.59a28.27,28.27,0,0,1-35.5-25.93c0-.46,0-.92,0-1.39a28.27,28.27,0,1,1,35.54,27.32Z"/>
</g>
</g>
</g>
</svg>